<svg width="16" height="14" viewBox="0 0 16 14" fill="none" xmlns="http://www.w3.org/2000/svg">
<path d="M14.1875 3.78125H11.0938V3.5C11.0938 2.67949 10.7678 1.89258 10.1876 1.31239C9.60742 0.732198 8.82051 0.40625 8 0.40625C7.17949 0.40625 6.39258 0.732198 5.81239 1.31239C5.2322 1.89258 4.90625 2.67949 4.90625 3.5V3.78125H1.8125C1.58872 3.78125 1.37411 3.87014 1.21588 4.02838C1.05764 4.18661 0.96875 4.40122 0.96875 4.625V13.0625C0.96875 13.2863 1.05764 13.5009 1.21588 13.6591C1.37411 13.8174 1.58872 13.9062 1.8125 13.9062H14.1875C14.4113 13.9062 14.6259 13.8174 14.7841 13.6591C14.9424 13.5009 15.0312 13.2863 15.0312 13.0625V4.625C15.0312 4.40122 14.9424 4.18661 14.7841 4.02838C14.6259 3.87014 14.4113 3.78125 14.1875 3.78125ZM5.46875 3.5C5.46875 2.82867 5.73543 2.18484 6.21014 1.71014C6.68484 1.23543 7.32867 0.96875 8 0.96875C8.67133 0.96875 9.31516 1.23543 9.78986 1.71014C10.2646 2.18484 10.5312 2.82867 10.5312 3.5V3.78125H5.46875V3.5ZM14.4688 13.0625C14.4688 13.1371 14.4391 13.2086 14.3864 13.2614C14.3336 13.3141 14.2621 13.3438 14.1875 13.3438H1.8125C1.73791 13.3438 1.66637 13.3141 1.61363 13.2614C1.56088 13.2086 1.53125 13.1371 1.53125 13.0625V4.625C1.53125 4.55041 1.56088 4.47887 1.61363 4.42613C1.66637 4.37338 1.73791 4.34375 1.8125 4.34375H4.90625V5.75C4.90625 5.82459 4.93588 5.89613 4.98863 5.94887C5.04137 6.00162 5.11291 6.03125 5.1875 6.03125C5.26209 6.03125 5.33363 6.00162 5.38637 5.94887C5.43912 5.89613 5.46875 5.82459 5.46875 5.75V4.34375H10.5312V5.75C10.5312 5.82459 10.5609 5.89613 10.6136 5.94887C10.6664 6.00162 10.7379 6.03125 10.8125 6.03125C10.8871 6.03125 10.9586 6.00162 11.0114 5.94887C11.0641 5.89613 11.0938 5.82459 11.0938 5.75V4.34375H14.1875C14.2621 4.34375 14.3336 4.37338 14.3864 4.42613C14.4391 4.47887 14.4688 4.55041 14.4688 4.625V13.0625Z" fill="#ED6331"/>
</svg>
