<svg width="22" height="18" viewBox="0 0 22 18" fill="none" xmlns="http://www.w3.org/2000/svg">
<path d="M21.5 5.01004L20 0.510043C19.9479 0.354808 19.8463 0.22092 19.7109 0.128829C19.5754 0.0367384 19.4136 -0.00849313 19.25 4.34028e-05H2.75005C2.5865 -0.00849313 2.42465 0.0367384 2.28922 0.128829C2.15379 0.22092 2.05223 0.354808 2.00005 0.510043L0.500047 5.01004C0.489242 5.08968 0.489242 5.17041 0.500047 5.25004V9.75004C0.500047 9.94896 0.579065 10.1397 0.719717 10.2804C0.86037 10.421 1.05114 10.5 1.25005 10.5H2.00005V18H3.50005V10.5H8.00005V18H20V10.5H20.75C20.949 10.5 21.1397 10.421 21.2804 10.2804C21.421 10.1397 21.5 9.94896 21.5 9.75004V5.25004C21.5109 5.17041 21.5109 5.08968 21.5 5.01004ZM18.5 16.5H9.50005V10.5H18.5V16.5ZM20 9.00004H17V6.00004H15.5V9.00004H11.75V6.00004H10.25V9.00004H6.50005V6.00004H5.00005V9.00004H2.00005V5.37004L3.29005 1.50004H18.71L20 5.37004V9.00004Z" fill="#828282"/>
</svg>
