<svg width="20" height="20" viewBox="0 0 20 20" fill="none" xmlns="http://www.w3.org/2000/svg">
<path d="M17.0201 2.97522C15.631 1.58682 13.8615 0.641483 11.9352 0.258751C10.0089 -0.123981 8.01242 0.0730819 6.19814 0.825021C4.38385 1.57696 2.83328 2.85 1.74249 4.48317C0.651707 6.11634 0.0697007 8.03629 0.0700685 10.0002C0.0700682 12.6343 1.1161 15.1605 2.97819 17.0236C4.84029 18.8866 7.36601 19.9339 10.0001 19.9352C11.3036 19.9358 12.5945 19.681 13.8001 19.1852C15.0018 18.678 16.0949 17.9447 17.0201 17.0252C17.9427 16.1027 18.6746 15.0076 19.1739 13.8022C19.6733 12.5968 19.9303 11.3049 19.9303 10.0002C19.9303 8.69553 19.6733 7.40361 19.1739 6.19825C18.6746 4.99289 17.9427 3.8977 17.0201 2.97522ZM16.3201 16.3152C14.8901 17.7513 13.0138 18.6577 11.0001 18.8852V12.3252H12.8801C13.1453 12.3252 13.3996 12.2199 13.5872 12.0323C13.7747 11.8448 13.8801 11.5904 13.8801 11.3252C13.8801 11.06 13.7747 10.8057 13.5872 10.6181C13.3996 10.4306 13.1453 10.3252 12.8801 10.3252H11.0001V7.58522C11.0001 7.32001 11.1054 7.06565 11.293 6.87812C11.4805 6.69058 11.7349 6.58522 12.0001 6.58522H13.2001C13.4653 6.58522 13.7196 6.47987 13.9072 6.29233C14.0947 6.10479 14.2001 5.85044 14.2001 5.58522C14.2001 5.32001 14.0947 5.06565 13.9072 4.87812C13.7196 4.69058 13.4653 4.58522 13.2001 4.58522H11.5001C10.837 4.58522 10.2011 4.84862 9.7323 5.31746C9.26346 5.7863 9.00007 6.42218 9.00007 7.08522V10.3252H7.13007C6.86485 10.3252 6.6105 10.4306 6.42296 10.6181C6.23543 10.8057 6.13007 11.06 6.13007 11.3252C6.13007 11.5904 6.23543 11.8448 6.42296 12.0323C6.6105 12.2199 6.86485 12.3252 7.13007 12.3252H9.00007V18.8852C7.14296 18.6733 5.39935 17.8834 4.01552 16.6269C2.63169 15.3704 1.67758 13.7109 1.28797 11.8828C0.898355 10.0547 1.09293 8.15041 1.8442 6.43888C2.59547 4.72735 3.86547 3.2951 5.47482 2.34444C7.08416 1.39378 8.95151 0.97276 10.8131 1.14084C12.6747 1.30892 14.4364 2.05762 15.8494 3.28117C17.2625 4.50472 18.2554 6.14128 18.6879 7.9597C19.1205 9.77812 18.9708 11.6865 18.2601 13.4152C17.8074 14.4984 17.1485 15.4834 16.3201 16.3152Z" fill="#333333"/>
</svg>
