<svg width="14" height="14" viewBox="0 0 14 14" fill="none" xmlns="http://www.w3.org/2000/svg">
<path fill-rule="evenodd" clip-rule="evenodd" d="M1.87938 2.4955C1.33188 3.19225 1 4.144 1 5.13812C1 7.36562 2.48687 9.23575 4.05625 10.5816C4.96088 11.3509 5.94627 12.0198 6.99512 12.5766L7.08963 12.5241C8.10409 11.9484 9.05911 11.2737 9.94075 10.51C11.5165 9.13413 13 7.26438 13 5.13775C13 4.144 12.6681 3.19188 12.121 2.49513C11.575 1.80138 10.8299 1.375 9.98837 1.375C8.82475 1.375 7.92213 2.1325 7.33675 3.32575L7 4.01125L6.66325 3.32575C6.07787 2.1325 5.17525 1.375 4.012 1.375C3.17013 1.375 2.425 1.801 1.87938 2.4955ZM7 13L6.83725 13.3375L6.83538 13.3368L6.83125 13.3349L6.81588 13.3274C6.72635 13.2826 6.63747 13.2366 6.54925 13.1894C5.48678 12.6165 4.48764 11.9332 3.56838 11.1509C1.95062 9.76412 0.25 7.70312 0.25 5.13775C0.25 3.98463 0.632875 2.8675 1.2895 2.032C1.948 1.19425 2.896 0.625 4.012 0.625C5.32562 0.625 6.32463 1.36113 7 2.40025C7.675 1.3615 8.67437 0.625 9.98837 0.625C11.104 0.625 12.0524 1.19425 12.7109 2.03238C13.3667 2.8675 13.75 3.985 13.75 5.13812C13.75 7.60637 12.046 9.66775 10.4342 11.0748C9.45347 11.924 8.38581 12.6674 7.249 13.2925L7.19238 13.3225L7.17737 13.3307L7.17288 13.3326L7.17175 13.3334C7.17175 13.3334 7.171 13.3337 7 13ZM7 13L7.17138 13.3337L7.00525 13.4189L6.83725 13.3375L7 13Z" fill="#EE6231"/>
</svg>
