<svg width="20" height="20" viewBox="0 0 20 20" fill="none" xmlns="http://www.w3.org/2000/svg">
<path d="M18.25 5.93772H14.3819C14.5804 5.8131 14.7685 5.67264 14.9444 5.51772C15.2096 5.2814 15.4233 4.99292 15.572 4.67031C15.7207 4.3477 15.8013 3.99788 15.8088 3.64272C15.8203 3.25202 15.7519 2.86308 15.6078 2.49973C15.4637 2.13638 15.247 1.80628 14.9709 1.52963C14.6947 1.25298 14.365 1.03561 14.002 0.890843C13.6389 0.746076 13.2501 0.676956 12.8594 0.687717C12.5042 0.695157 12.1544 0.775756 11.8318 0.92448C11.5092 1.0732 11.2207 1.28686 10.9844 1.55209C10.5501 2.06457 10.2162 2.65421 10 3.29022C9.78429 2.65468 9.451 2.06538 9.0175 1.55303C8.78105 1.28739 8.49231 1.07343 8.16935 0.924537C7.84639 0.775641 7.49618 0.695019 7.14062 0.687717C6.74967 0.676442 6.36054 0.74515 5.99709 0.889627C5.63364 1.0341 5.30353 1.2513 5.02702 1.52791C4.7505 1.80451 4.53341 2.13468 4.38905 2.49818C4.24469 2.86168 4.1761 3.25083 4.1875 3.64178C4.19494 3.99694 4.27554 4.34676 4.42426 4.66937C4.57299 4.99198 4.78664 5.28046 5.05188 5.51678C5.22758 5.67192 5.41571 5.81239 5.61438 5.93678H1.75C1.57756 5.93678 1.40681 5.97076 1.24751 6.03678C1.08821 6.1028 0.94348 6.19956 0.821591 6.32153C0.699702 6.44351 0.603043 6.58831 0.537139 6.74766C0.471235 6.90701 0.437377 7.07778 0.4375 7.25022V10.2502C0.4375 10.5983 0.575781 10.9322 0.821923 11.1783C1.06806 11.4244 1.4019 11.5627 1.75 11.5627H1.9375V17.7502C1.9375 18.0983 2.07578 18.4322 2.32192 18.6783C2.56806 18.9244 2.9019 19.0627 3.25 19.0627H16.75C17.0981 19.0627 17.4319 18.9244 17.6781 18.6783C17.9242 18.4322 18.0625 18.0983 18.0625 17.7502V11.5627H18.25C18.5981 11.5627 18.9319 11.4244 19.1781 11.1783C19.4242 10.9322 19.5625 10.5983 19.5625 10.2502V7.25022C19.5625 6.90212 19.4242 6.56828 19.1781 6.32214C18.9319 6.076 18.5981 5.93772 18.25 5.93772ZM10.7284 4.90647C10.9394 3.77022 11.3181 2.8674 11.8244 2.29553C11.9598 2.14602 12.1247 2.02599 12.3085 1.94293C12.4924 1.85987 12.6914 1.81554 12.8931 1.81272H12.9447C13.1779 1.81274 13.4088 1.85956 13.6236 1.9504C13.8384 2.04123 14.0328 2.17424 14.1953 2.34155C14.3578 2.50886 14.4851 2.70707 14.5697 2.92445C14.6542 3.14183 14.6943 3.37395 14.6875 3.60709C14.6843 3.80904 14.6396 4.00817 14.556 4.19205C14.4724 4.37593 14.3519 4.54062 14.2019 4.67584C13.1969 5.56272 11.4925 5.82803 10.5944 5.9049C10.6178 5.63397 10.6562 5.28897 10.7284 4.90647ZM5.82344 2.32365C6.15066 1.99762 6.59339 1.81399 7.05531 1.81272H7.10687C7.30882 1.8159 7.50795 1.86066 7.69183 1.94422C7.87571 2.02777 8.0404 2.14832 8.17562 2.29834C9.0625 3.30334 9.32781 5.00772 9.40469 5.90584C9.13375 5.88241 8.78875 5.84209 8.41 5.77178C7.27375 5.56272 6.37094 5.18209 5.79906 4.6749C5.64881 4.54001 5.52803 4.37554 5.4443 4.1918C5.36058 4.00805 5.31571 3.80899 5.3125 3.60709C5.30603 3.36968 5.348 3.13343 5.43584 2.91277C5.52369 2.69211 5.65557 2.49167 5.82344 2.32365ZM1.5625 10.2502V7.25022C1.5625 7.20049 1.58225 7.1528 1.61742 7.11764C1.65258 7.08247 1.70027 7.06272 1.75 7.06272H9.4375V10.4377H1.75C1.70027 10.4377 1.65258 10.418 1.61742 10.3828C1.58225 10.3476 1.5625 10.2999 1.5625 10.2502ZM3.0625 17.7502V11.5627H9.4375V17.9377H3.25C3.20027 17.9377 3.15258 17.918 3.11742 17.8828C3.08225 17.8476 3.0625 17.7999 3.0625 17.7502ZM16.9375 17.7502C16.9375 17.7999 16.9177 17.8476 16.8826 17.8828C16.8474 17.918 16.7997 17.9377 16.75 17.9377H10.5625V11.5627H16.9375V17.7502ZM18.4375 10.2502C18.4375 10.2999 18.4177 10.3476 18.3826 10.3828C18.3474 10.418 18.2997 10.4377 18.25 10.4377H10.5625V7.06272H18.25C18.2997 7.06272 18.3474 7.08247 18.3826 7.11764C18.4177 7.1528 18.4375 7.20049 18.4375 7.25022V10.2502Z" fill="#333333"/>
</svg>
