<svg width="24" height="24" viewBox="0 0 24 24" fill="none" xmlns="http://www.w3.org/2000/svg">
<g clip-path="url(#clip0_232_127)">
<path d="M14.6362 8.96411C14.1277 8.96411 13.7512 9.09236 13.4565 9.25436C13.4092 9.08636 13.254 8.96336 13.071 9.00011H10.833C10.6117 8.96336 10.4325 9.14261 10.5007 9.37511V17.6251C10.4325 17.8351 10.6117 18.0151 10.833 18.0001H13.071C13.2922 18.0151 13.4715 17.8351 13.4715 17.6139L13.4707 12.6279C13.47 12.6256 13.4617 12.3871 13.6125 12.2229C13.7332 12.0924 13.941 12.0256 14.2282 12.0256C14.7067 12.0256 14.9197 12.2214 14.9992 12.6594V17.6139C14.9205 17.8351 15.0997 18.0151 15.321 18.0001H17.6797C17.901 18.0151 18.0802 17.8351 18.0007 17.6139V12.4929C18.0795 9.88886 16.2247 8.96411 14.6362 8.96411ZM17.2785 17.2501H15.7215V12.6594C15.7215 11.7736 15.1492 11.2246 14.229 11.2246C13.7085 11.2246 13.3035 11.3776 13.0245 11.6791C12.6367 12.0991 12.6667 12.6316 12.75 12.7501V17.2501H11.2335V9.76511H12.6705V10.0171C12.6699 10.0922 12.6905 10.1659 12.7299 10.2298C12.7694 10.2937 12.826 10.3451 12.8934 10.3783C12.9607 10.4114 13.0361 10.4249 13.1108 10.4171C13.1854 10.4093 13.2564 10.3806 13.3155 10.3344L13.4205 10.2534C13.7242 10.0141 14.0385 9.76586 14.637 9.76586C15.2565 9.76586 17.2792 9.96311 17.2792 12.4936L17.2785 17.2501ZM8.24999 5.22461C7.40849 5.22461 6.72449 5.90861 6.72449 6.75011C6.72449 7.59161 7.40849 8.27561 8.24999 8.27561C9.09149 8.27561 9.77549 7.59161 9.77549 6.75011C9.77549 5.90861 9.09149 5.22461 8.24999 5.22461ZM8.24999 7.47461C7.85099 7.47461 7.52549 7.14911 7.52549 6.75011C7.52549 6.35111 7.85099 6.02561 8.24999 6.02561C8.64899 6.02561 8.97449 6.35111 8.97449 6.75011C8.97449 7.14911 8.64899 7.47461 8.24999 7.47461ZM9.32099 8.96336H7.09499C6.87374 8.96336 6.69449 9.14261 6.74999 9.37511V17.6251C6.69449 17.8351 6.87374 18.0151 7.09499 18.0001H9.32099C9.54224 18.0151 9.72149 17.8351 9.72149 17.6139V9.36386C9.72149 9.25764 9.67929 9.15577 9.60418 9.08066C9.52908 9.00555 9.42721 8.96336 9.32099 8.96336ZM8.99999 17.2501H7.49549V9.76511H8.99999V17.2501Z" fill="#333333"/>
<path d="M12 -0.0253906C5.36849 -0.0253906 -0.0255127 5.36861 -0.0255127 12.0001C-0.0255127 18.6316 5.36849 24.0256 12 24.0256C18.6315 24.0256 24.0255 18.6316 24.0255 12.0001C24.0255 5.36861 18.6315 -0.0253906 12 -0.0253906ZM12 23.2246C5.81099 23.2246 0.775487 18.1891 0.775487 12.0001C0.775487 5.81111 5.81099 0.775609 12 0.775609C18.189 0.775609 23.2245 5.81111 23.2245 12.0001C23.2245 18.1891 18.189 23.2246 12 23.2246Z" fill="#333333"/>
</g>
<defs>
<clipPath id="clip0_232_127">
<rect width="24" height="24" fill="white"/>
</clipPath>
</defs>
</svg>
