<svg width="35" height="27" viewBox="0 0 35 27" fill="none" xmlns="http://www.w3.org/2000/svg">
<g clip-path="url(#clip0_270_69)">
<path d="M6.32401 26.8656V25.0786C6.32401 24.3934 5.90693 23.9468 5.19205 23.9468C4.83467 23.9468 4.44744 24.0659 4.17934 24.4531C3.97094 24.1255 3.67313 23.9468 3.22634 23.9468C2.92839 23.9468 2.63071 24.0361 2.39232 24.3637V24.0063H1.76685V26.8656H2.39232V25.287C2.39232 24.7808 2.66042 24.5424 3.0775 24.5424C3.4943 24.5424 3.70298 24.8105 3.70298 25.287V26.8656H4.32845V25.287C4.32845 24.7808 4.62613 24.5424 5.01336 24.5424C5.43043 24.5424 5.63883 24.8105 5.63883 25.287V26.8656H6.32401ZM15.5869 24.0063H14.5743V23.1426H13.9489V24.0063H13.3829V24.5721H13.9487V25.8828C13.9487 26.5381 14.2168 26.9252 14.9317 26.9252C15.1998 26.9252 15.4975 26.8359 15.7062 26.7168L15.5273 26.1806C15.3487 26.2997 15.1403 26.3296 14.9913 26.3296C14.6935 26.3296 14.5743 26.1509 14.5743 25.8529V24.5721H15.5869V24.0063ZM20.8887 23.9466C20.5313 23.9466 20.293 24.1255 20.1441 24.3637V24.0063H19.5186V26.8656H20.1441V25.2573C20.1441 24.7808 20.3525 24.5127 20.7397 24.5127C20.8588 24.5127 21.0078 24.5425 21.1269 24.5723L21.3056 23.9766C21.1865 23.9468 21.0078 23.9468 20.8887 23.9468V23.9466ZM12.8766 24.2446C12.5786 24.0361 12.1617 23.9468 11.7149 23.9468C11.0002 23.9468 10.5237 24.3042 10.5237 24.8701C10.5237 25.3467 10.881 25.6147 11.5065 25.7041L11.8043 25.7339C12.132 25.7934 12.3107 25.8828 12.3107 26.0317C12.3107 26.2401 12.0724 26.3891 11.6554 26.3891C11.2384 26.3891 10.9108 26.2401 10.7022 26.0913L10.4044 26.5678C10.7321 26.8061 11.1789 26.9252 11.6255 26.9252C12.4595 26.9252 12.9362 26.5381 12.9362 26.0019C12.9362 25.4955 12.5489 25.2274 11.9532 25.1382L11.6554 25.1083C11.3873 25.0785 11.1789 25.019 11.1789 24.8404C11.1789 24.6318 11.3873 24.5127 11.7149 24.5127C12.0724 24.5127 12.4298 24.6615 12.6085 24.7509L12.8766 24.2446ZM29.4965 23.9468C29.139 23.9468 28.9007 24.1255 28.7518 24.3637V24.0063H28.1263V26.8656H28.7518V25.2573C28.7518 24.7808 28.9603 24.5127 29.3474 24.5127C29.4667 24.5127 29.6156 24.5425 29.7348 24.5723L29.9135 23.9766C29.7943 23.9468 29.6156 23.9468 29.4965 23.9468ZM21.5141 25.436C21.5141 26.2997 22.1098 26.9252 23.0332 26.9252C23.4501 26.9252 23.748 26.8359 24.0458 26.5977L23.748 26.0913C23.5097 26.27 23.2715 26.3593 23.0034 26.3593C22.497 26.3593 22.1396 26.0019 22.1396 25.436C22.1396 24.8999 22.497 24.5424 23.0034 24.5127C23.2715 24.5127 23.5097 24.602 23.748 24.7808L24.0458 24.2744C23.748 24.0361 23.4501 23.9468 23.0332 23.9468C22.1098 23.9468 21.5141 24.5723 21.5141 25.436ZM27.2924 25.436V24.0063H26.6669V24.3637C26.4584 24.0958 26.1606 23.9468 25.7734 23.9468C24.9692 23.9468 24.3437 24.5723 24.3437 25.436C24.3437 26.2997 24.9692 26.9252 25.7734 26.9252C26.1903 26.9252 26.4883 26.7763 26.6669 26.5082V26.8656H27.2924V25.436ZM24.9989 25.436C24.9989 24.9296 25.3266 24.5127 25.8626 24.5127C26.369 24.5127 26.7265 24.8999 26.7265 25.436C26.7265 25.9423 26.369 26.3593 25.8626 26.3593C25.3266 26.3294 24.9989 25.9423 24.9989 25.436ZM17.523 23.9468C16.689 23.9468 16.0933 24.5424 16.0933 25.436C16.0933 26.3296 16.6889 26.9252 17.5527 26.9252C17.9697 26.9252 18.3868 26.8061 18.7144 26.5381L18.4165 26.0913C18.1782 26.27 17.8804 26.3891 17.5826 26.3891C17.1954 26.3891 16.8081 26.2104 16.7187 25.7039H18.8336V25.4658C18.8634 24.5424 18.3273 23.9468 17.523 23.9468ZM17.523 24.4828C17.9101 24.4828 18.1784 24.7212 18.2378 25.168H16.7486C16.8081 24.7808 17.0762 24.4828 17.523 24.4828ZM33.0408 25.436V22.8745H32.4154V24.3637C32.2068 24.0958 31.909 23.9468 31.5218 23.9468C30.7176 23.9468 30.0921 24.5723 30.0921 25.436C30.0921 26.2997 30.7176 26.9252 31.5218 26.9252C31.9389 26.9252 32.2367 26.7763 32.4154 26.5082V26.8656H33.0408V25.436ZM30.7475 25.436C30.7475 24.9296 31.075 24.5127 31.6112 24.5127C32.1175 24.5127 32.4749 24.8999 32.4749 25.436C32.4749 25.9423 32.1175 26.3593 31.6112 26.3593C31.075 26.3294 30.7475 25.9423 30.7475 25.436ZM9.83849 25.436V24.0063H9.21301V24.3637C9.00447 24.0958 8.70666 23.9468 8.31943 23.9468C7.51527 23.9468 6.88979 24.5723 6.88979 25.436C6.88979 26.2997 7.51527 26.9252 8.31943 26.9252C8.73651 26.9252 9.03432 26.7763 9.21301 26.5082V26.8656H9.83849V25.436ZM7.51527 25.436C7.51527 24.9296 7.84293 24.5127 8.37899 24.5127C8.88535 24.5127 9.24286 24.8999 9.24286 25.436C9.24286 25.9423 8.88535 26.3593 8.37899 26.3593C7.84293 26.3294 7.51527 25.9423 7.51527 25.436Z" fill="black"/>
<path d="M12.6681 2.29346H22.0503V19.1516H12.6681V2.29346Z" fill="#FF5F00"/>
<path d="M13.2639 10.7225C13.2639 7.29733 14.8723 4.25922 17.3443 2.29337C15.5276 0.863729 13.2342 0 10.7323 0C4.80492 0 0.00964355 4.79528 0.00964355 10.7225C0.00964355 16.6496 4.80492 21.4451 10.7322 21.4451C13.2341 21.4451 15.5274 20.5813 17.3443 19.1515C14.8723 17.2155 13.2639 14.1477 13.2639 10.7225Z" fill="#EB001B"/>
<path d="M34.7088 10.7225C34.7088 16.6496 29.9135 21.4451 23.9863 21.4451C21.4844 21.4451 19.191 20.5813 17.3741 19.1515C19.8761 17.1858 21.4547 14.1477 21.4547 10.7225C21.4547 7.29733 19.8462 4.25922 17.3741 2.29337C19.1909 0.863729 21.4844 0 23.9863 0C29.9135 0 34.7088 4.82513 34.7088 10.7225Z" fill="#F79E1B"/>
</g>
<defs>
<clipPath id="clip0_270_69">
<rect width="34.7529" height="27" fill="white"/>
</clipPath>
</defs>
</svg>
