<svg width="8" height="8" viewBox="0 0 8 8" fill="none" xmlns="http://www.w3.org/2000/svg">
<path d="M3.58333 0.146738L0.25 2.81341C0.172042 2.87582 0.109103 2.95495 0.0658315 3.04496C0.0225601 3.13496 6.24068e-05 3.23354 0 3.3334V7.3334L0.00400003 7.40807C0.0172944 7.52662 0.0621558 7.63943 0.133905 7.73474C0.205654 7.83005 0.301663 7.90435 0.411915 7.94991C0.522168 7.99547 0.642625 8.01061 0.760723 7.99375C0.87882 7.9769 0.990231 7.92866 1.08333 7.85407L4 5.52007L6.91667 7.8534C7.01469 7.93188 7.13287 7.98108 7.25763 7.99534C7.38238 8.0096 7.50862 7.98834 7.62182 7.934C7.73502 7.87967 7.83057 7.79447 7.89748 7.68821C7.96438 7.58196 7.99992 7.45897 8 7.3334V3.3334C7.99994 3.23354 7.97744 3.13496 7.93417 3.04496C7.8909 2.95495 7.82796 2.87582 7.75 2.81341L4.41667 0.146738C4.29843 0.0520694 4.15147 0.000488281 4 0.000488281C3.84853 0.000488281 3.70158 0.0520694 3.58333 0.146738Z" fill="#828282"/>
</svg>
