<svg width="18" height="18" viewBox="0 0 18 18" fill="none" xmlns="http://www.w3.org/2000/svg">
<path d="M15.75 15.7499L12.4928 12.4927M12.4928 12.4927C13.0499 11.9355 13.4919 11.274 13.7935 10.5461C14.095 9.8181 14.2502 9.03786 14.2502 8.24991C14.2502 7.46196 14.095 6.68172 13.7935 5.95375C13.4919 5.22578 13.0499 4.56433 12.4928 4.00716C11.9356 3.44999 11.2742 3.00803 10.5462 2.70649C9.81822 2.40495 9.03798 2.24976 8.25003 2.24976C7.46208 2.24976 6.68184 2.40495 5.95387 2.70649C5.2259 3.00803 4.56445 3.44999 4.00728 4.00716C2.88204 5.13241 2.24988 6.65857 2.24988 8.24991C2.24988 9.84125 2.88204 11.3674 4.00728 12.4927C5.13253 13.6179 6.65869 14.2501 8.25003 14.2501C9.84137 14.2501 11.3675 13.6179 12.4928 12.4927Z" stroke="#ED6331" stroke-width="0.875" stroke-linecap="round" stroke-linejoin="round"/>
</svg>
