<svg width="15" height="15" viewBox="0 0 15 15" fill="none" xmlns="http://www.w3.org/2000/svg">
<path d="M14.1118 14.0755L10.8546 10.8182M10.8546 10.8182C11.4118 10.2611 11.8537 9.5996 12.1553 8.87163C12.4568 8.14366 12.612 7.36342 12.612 6.57547C12.612 5.78752 12.4568 5.00728 12.1553 4.27931C11.8537 3.55134 11.4118 2.88989 10.8546 2.33272C10.2974 1.77556 9.63598 1.33359 8.90801 1.03205C8.18004 0.730516 7.3998 0.575317 6.61185 0.575317C5.8239 0.575317 5.04366 0.730516 4.31569 1.03205C3.58772 1.33359 2.92626 1.77556 2.3691 2.33272C1.24385 3.45797 0.611694 4.98413 0.611694 6.57547C0.611694 8.16681 1.24385 9.69297 2.3691 10.8182C3.49435 11.9435 5.02051 12.5756 6.61185 12.5756C8.20319 12.5756 9.72935 11.9435 10.8546 10.8182Z" stroke="#ED6331" stroke-width="0.875" stroke-linecap="round" stroke-linejoin="round"/>
</svg>
