<svg width="14" height="14" viewBox="0 0 14 14" fill="none" xmlns="http://www.w3.org/2000/svg">
<path d="M12.792 4.09013L9.91047 1.20865C9.83937 1.13755 9.75497 1.08114 9.66207 1.04266C9.56918 1.00418 9.46961 0.984375 9.36906 0.984375C9.26851 0.984375 9.16895 1.00418 9.07605 1.04266C8.98316 1.08114 8.89875 1.13755 8.82766 1.20865L1.20805 8.82717C1.13694 8.89826 1.08054 8.98267 1.04206 9.07556C1.00358 9.16846 0.983772 9.26802 0.983772 9.36857C0.983772 9.46912 1.00358 9.56869 1.04206 9.66158C1.08054 9.75448 1.13694 9.83888 1.20805 9.90998L4.08953 12.7915C4.16063 12.8626 4.24503 12.919 4.33793 12.9574C4.43082 12.9959 4.53039 13.0157 4.63094 13.0157C4.73149 13.0157 4.83105 12.9959 4.92395 12.9574C5.01684 12.919 5.10125 12.8626 5.17234 12.7915L12.792 5.17295C12.8631 5.10185 12.9195 5.01744 12.9579 4.92455C12.9964 4.83165 13.0162 4.73209 13.0162 4.63154C13.0162 4.53099 12.9964 4.43142 12.9579 4.33853C12.9195 4.24563 12.8631 4.16123 12.792 4.09013ZM12.3277 4.70865L4.70859 12.3272C4.69844 12.3373 4.68637 12.3454 4.67309 12.3509C4.65982 12.3564 4.64558 12.3592 4.63121 12.3592C4.61684 12.3592 4.6026 12.3564 4.58933 12.3509C4.57605 12.3454 4.56399 12.3373 4.55383 12.3272L1.67234 9.44623C1.66217 9.43607 1.65411 9.42401 1.6486 9.41073C1.6431 9.39745 1.64026 9.38322 1.64026 9.36884C1.64026 9.35447 1.6431 9.34024 1.6486 9.32696C1.65411 9.31368 1.66217 9.30162 1.67234 9.29146L3.5 7.46381L5.01812 8.98193C5.04816 9.01417 5.08439 9.04003 5.12464 9.05796C5.16489 9.07589 5.20834 9.08554 5.2524 9.08631C5.29645 9.08709 5.34022 9.07899 5.38107 9.06248C5.42193 9.04598 5.45905 9.02142 5.4902 8.99026C5.52136 8.9591 5.54593 8.92199 5.56243 8.88113C5.57893 8.84027 5.58704 8.79651 5.58626 8.75245C5.58548 8.7084 5.57584 8.66494 5.5579 8.62469C5.53997 8.58444 5.51411 8.54822 5.48187 8.51818L3.96375 7.00006L5.25 5.71381L6.76813 7.23193C6.83033 7.28989 6.9126 7.32144 6.9976 7.31994C7.08261 7.31844 7.16372 7.28401 7.22383 7.22389C7.28395 7.16377 7.31839 7.08267 7.31989 6.99766C7.32139 6.91265 7.28983 6.83038 7.23187 6.76818L5.71375 5.25006L7 3.96435L8.51812 5.48193C8.58033 5.53989 8.6626 5.57144 8.7476 5.56994C8.83261 5.56845 8.91372 5.53401 8.97383 5.47389C9.03395 5.41377 9.06839 5.33267 9.06989 5.24766C9.07139 5.16265 9.03983 5.08038 8.98187 5.01818L7.4643 3.50006L9.29141 1.67295C9.30156 1.66278 9.31363 1.65471 9.3269 1.64921C9.34018 1.6437 9.35442 1.64087 9.36879 1.64087C9.38316 1.64087 9.3974 1.6437 9.41067 1.64921C9.42395 1.65471 9.43601 1.66278 9.44617 1.67295L12.3277 4.55388C12.3378 4.56404 12.3459 4.5761 12.3514 4.58938C12.3569 4.60266 12.3597 4.61689 12.3597 4.63127C12.3597 4.64564 12.3569 4.65987 12.3514 4.67315C12.3459 4.68643 12.3378 4.69849 12.3277 4.70865Z" fill="black"/>
</svg>
