<svg width="22" height="22" viewBox="0 0 22 22" fill="none" xmlns="http://www.w3.org/2000/svg">
<rect width="22" height="22" fill="#FF7913"/>
<g clip-path="url(#clip0_253_551)">
<path d="M16.7919 8.09013L13.9105 5.20865C13.8394 5.13755 13.755 5.08114 13.6621 5.04266C13.5692 5.00418 13.4696 4.98438 13.3691 4.98438C13.2685 4.98438 13.1689 5.00418 13.076 5.04266C12.9832 5.08114 12.8987 5.13755 12.8276 5.20865L5.20804 12.8272C5.13694 12.8983 5.08053 12.9827 5.04205 13.0756C5.00357 13.1685 4.98376 13.268 4.98376 13.3686C4.98376 13.4691 5.00357 13.5687 5.04205 13.6616C5.08053 13.7545 5.13694 13.8389 5.20804 13.91L8.08952 16.7915C8.16062 16.8626 8.24502 16.919 8.33792 16.9574C8.43081 16.9959 8.53038 17.0157 8.63093 17.0157C8.73148 17.0157 8.83104 16.9959 8.92394 16.9574C9.01683 16.919 9.10124 16.8626 9.17234 16.7915L16.7919 9.17295C16.863 9.10185 16.9195 9.01744 16.9579 8.92455C16.9964 8.83165 17.0162 8.73209 17.0162 8.63154C17.0162 8.53099 16.9964 8.43142 16.9579 8.33853C16.9195 8.24563 16.863 8.16123 16.7919 8.09013ZM16.3276 8.70865L8.70859 16.3272C8.69843 16.3373 8.68636 16.3454 8.67309 16.3509C8.65981 16.3564 8.64558 16.3592 8.6312 16.3592C8.61683 16.3592 8.6026 16.3564 8.58932 16.3509C8.57604 16.3454 8.56398 16.3373 8.55382 16.3272L5.67234 13.4462C5.66217 13.4361 5.6541 13.424 5.64859 13.4107C5.64309 13.3975 5.64026 13.3832 5.64026 13.3688C5.64026 13.3545 5.64309 13.3402 5.64859 13.327C5.6541 13.3137 5.66217 13.3016 5.67234 13.2915L7.49999 11.4638L9.01812 12.9819C9.04816 13.0142 9.08438 13.04 9.12463 13.058C9.16488 13.0759 9.20833 13.0855 9.25239 13.0863C9.29645 13.0871 9.34021 13.079 9.38107 13.0625C9.42192 13.046 9.45904 13.0214 9.4902 12.9903C9.52135 12.9591 9.54592 12.922 9.56242 12.8811C9.57892 12.8403 9.58703 12.7965 9.58625 12.7525C9.58547 12.7084 9.57583 12.6649 9.5579 12.6247C9.53996 12.5844 9.5141 12.5482 9.48187 12.5182L7.96374 11.0001L9.24999 9.71381L10.7681 11.2319C10.8303 11.2899 10.9126 11.3214 10.9976 11.3199C11.0826 11.3184 11.1637 11.284 11.2238 11.2239C11.2839 11.1638 11.3184 11.0827 11.3199 10.9977C11.3214 10.9127 11.2898 10.8304 11.2319 10.7682L9.71374 9.25006L11 7.96435L12.5181 9.48193C12.5803 9.53989 12.6626 9.57144 12.7476 9.56994C12.8326 9.56845 12.9137 9.53401 12.9738 9.47389C13.0339 9.41377 13.0684 9.33267 13.0699 9.24766C13.0714 9.16265 13.0398 9.08038 12.9819 9.01818L11.4643 7.50006L13.2914 5.67295C13.3016 5.66278 13.3136 5.65471 13.3269 5.64921C13.3402 5.6437 13.3544 5.64087 13.3688 5.64087C13.3832 5.64087 13.3974 5.6437 13.4107 5.64921C13.4239 5.65471 13.436 5.66278 13.4462 5.67295L16.3276 8.55388C16.3378 8.56404 16.3459 8.5761 16.3514 8.58938C16.3569 8.60266 16.3597 8.61689 16.3597 8.63127C16.3597 8.64564 16.3569 8.65987 16.3514 8.67315C16.3459 8.68643 16.3378 8.69849 16.3276 8.70865Z" fill="white"/>
</g>
<defs>
<clipPath id="clip0_253_551">
<rect width="14" height="14" fill="white" transform="translate(4 4)"/>
</clipPath>
</defs>
</svg>
