<svg width="48" height="38" viewBox="0 0 48 38" fill="none" xmlns="http://www.w3.org/2000/svg">
<path d="M40.242 31.858C40.242 32.425 39.8595 32.833 39.309 32.833C38.742 32.833 38.376 32.3995 38.376 31.858C38.376 31.3165 38.742 30.883 39.309 30.883C39.8595 30.883 40.242 31.3165 40.242 31.858ZM14.3415 30.883C13.749 30.883 13.4085 31.3165 13.4085 31.858C13.4085 32.3995 13.7505 32.833 14.3415 32.833C14.883 32.833 15.249 32.425 15.249 31.858C15.24 31.3165 14.883 30.883 14.3415 30.883ZM24.1335 30.859C23.6835 30.859 23.4075 31.15 23.3415 31.5835H24.933C24.858 31.108 24.567 30.859 24.1335 30.859ZM33.117 30.883C32.55 30.883 32.2095 31.3165 32.2095 31.858C32.2095 32.3995 32.5515 32.833 33.117 32.833C33.684 32.833 34.05 32.425 34.05 31.858C34.05 31.3165 33.6825 30.883 33.117 30.883ZM41.9415 33.058C41.9415 33.0835 41.967 33.1 41.967 33.1495C41.967 33.175 41.9415 33.1915 41.9415 33.241C41.916 33.2665 41.916 33.283 41.8995 33.307C41.874 33.3325 41.8575 33.349 41.808 33.349C41.7825 33.3745 41.766 33.3745 41.7165 33.3745C41.691 33.3745 41.6745 33.3745 41.625 33.349C41.5995 33.349 41.583 33.3235 41.559 33.307C41.5335 33.2815 41.517 33.265 41.517 33.241C41.4915 33.199 41.4915 33.175 41.4915 33.1495C41.4915 33.1075 41.4915 33.0835 41.517 33.058C41.517 33.016 41.5425 32.992 41.559 32.9665C41.5845 32.941 41.601 32.941 41.625 32.9245C41.667 32.899 41.691 32.899 41.7165 32.899C41.7585 32.899 41.7825 32.899 41.808 32.9245C41.85 32.9485 41.874 32.9485 41.8995 32.9665C41.925 32.9845 41.916 33.016 41.9415 33.058ZM41.7585 33.175C41.8005 33.175 41.8005 33.1495 41.8245 33.1495C41.85 33.124 41.85 33.1075 41.85 33.0835C41.85 33.0595 41.85 33.0415 41.8245 33.0175C41.8005 33.0175 41.7825 32.992 41.733 32.992H41.5995V33.283H41.6655V33.166H41.691L41.7825 33.283H41.8485L41.7585 33.175ZM48 4.417V33.751C47.9996 34.8119 47.578 35.8292 46.8278 36.5793C46.0777 37.3295 45.0604 37.7511 43.9995 37.7515H3.999C2.93813 37.7511 1.92082 37.3295 1.17066 36.5793C0.42051 35.8292 -0.00109781 34.8119 -0.00149536 33.751V4.417C-0.00109781 3.35613 0.42051 2.33882 1.17066 1.58866C1.92082 0.838509 2.93813 0.416901 3.999 0.416504H43.9995C45.0604 0.416901 46.0777 0.838509 46.8278 1.58866C47.578 2.33882 47.9996 3.35613 48 4.417ZM5.334 16.0495C5.334 22.4245 10.509 27.5905 16.875 27.5905C19.1422 27.584 21.358 26.9151 23.25 25.666C17.175 20.725 17.217 11.3995 23.25 6.457C21.3598 5.20395 19.1428 4.53467 16.875 4.5325C10.509 4.525 5.334 9.6985 5.334 16.0495ZM24 25.117C29.8755 20.533 29.85 11.6005 24 6.9925C18.15 11.6005 18.1245 20.542 24 25.117ZM12.141 31.4755C12.141 30.751 11.6655 30.2755 10.9155 30.25C10.5315 30.25 10.1235 30.367 9.849 30.7915C9.6495 30.4495 9.3075 30.25 8.832 30.25C8.65922 30.2474 8.48841 30.287 8.33443 30.3654C8.18045 30.4438 8.04796 30.5587 7.9485 30.7V30.334H7.266V33.3925H7.9485C7.9485 31.8175 7.74 30.8755 8.6985 30.8755C9.549 30.8755 9.3825 31.726 9.3825 33.3925H10.041C10.041 31.867 9.8325 30.8755 10.791 30.8755C11.6415 30.8755 11.4735 31.7095 11.4735 33.3925H12.1575V31.4755H12.141ZM15.8835 30.334H15.225V30.7C15.1084 30.5546 14.9597 30.4383 14.7905 30.3602C14.6213 30.2821 14.4363 30.2444 14.25 30.25C13.392 30.25 12.7335 30.934 12.7335 31.858C12.7335 32.791 13.392 33.466 14.25 33.466C14.6835 33.466 15 33.307 15.225 33.016V33.4H15.8835V30.334ZM19.2585 32.467C19.2585 31.2175 17.3505 31.783 17.3505 31.1995C17.3505 30.724 18.342 30.8005 18.8925 31.108L19.167 30.5665C18.384 30.058 16.65 30.067 16.65 31.2505C16.65 32.4415 18.558 31.942 18.558 32.5C18.558 33.025 17.433 32.983 16.833 32.566L16.542 33.091C17.475 33.724 19.2585 33.5905 19.2585 32.4655V32.467ZM22.209 33.241L22.026 32.674C21.7095 32.848 21.009 33.04 21.009 32.332V30.949H22.101V30.3325H21.009V29.3995H20.325V30.3325H19.692V30.9415H20.325V32.3335C20.325 33.8005 21.7665 33.5335 22.209 33.241ZM23.316 32.125H25.608C25.608 30.775 24.9915 30.241 24.1575 30.241C23.274 30.241 22.641 30.8995 22.641 31.849C22.641 33.5575 24.525 33.841 25.458 33.0325L25.1415 32.533C24.492 33.067 23.508 33.016 23.316 32.125ZM28.242 30.334C27.8595 30.1675 27.276 30.184 26.976 30.7V30.334H26.292V33.3925H26.976V31.6675C26.976 30.7 27.768 30.826 28.0425 30.967L28.242 30.334ZM29.1255 31.858C29.1255 30.907 30.093 30.5995 30.8505 31.1575L31.167 30.616C30.1995 29.8585 28.4415 30.274 28.4415 31.8655C28.4415 33.5155 30.3075 33.8485 31.167 33.115L30.8505 32.5735C30.084 33.115 29.1255 32.791 29.1255 31.8565V31.858ZM34.683 30.334H33.999V30.7C33.3075 29.7835 31.5075 30.301 31.5075 31.858C31.5075 33.4585 33.3735 33.916 33.999 33.016V33.4H34.683V30.334ZM37.491 30.334C37.2915 30.2335 36.5745 30.0925 36.225 30.7V30.334H35.5665V33.3925H36.225V31.6675C36.225 30.751 36.975 30.8095 37.2915 30.967L37.491 30.334ZM40.8495 29.092H40.191V30.7C39.507 29.7925 37.6995 30.2755 37.6995 31.858C37.6995 33.475 39.5745 33.907 40.191 33.016V33.4H40.8495V29.092ZM41.484 22.834V23.218H41.55V22.834H41.7075V22.768H41.3235V22.834H41.484ZM42.033 33.1495C42.033 33.1075 42.033 33.058 42.009 33.016C41.9835 32.9905 41.967 32.95 41.943 32.9245C41.919 32.899 41.877 32.8825 41.8515 32.8585C41.8095 32.8585 41.76 32.833 41.718 32.833C41.6925 32.833 41.652 32.8585 41.601 32.8585C41.5681 32.877 41.5374 32.8991 41.5095 32.9245C41.4675 32.9485 41.4435 32.9905 41.4435 33.016C41.418 33.058 41.418 33.1075 41.418 33.1495C41.418 33.175 41.418 33.2155 41.4435 33.2665C41.4435 33.292 41.469 33.3325 41.5095 33.358C41.5348 33.3864 41.5661 33.4089 41.601 33.424C41.643 33.448 41.6925 33.448 41.718 33.448C41.76 33.448 41.8095 33.448 41.8515 33.424C41.877 33.3985 41.9175 33.382 41.943 33.358C41.9685 33.334 41.985 33.292 42.009 33.2665C42.033 33.217 42.033 33.175 42.033 33.1495ZM42.3 22.759H42.183L42.0495 23.05L41.916 22.759H41.799V23.209H41.865V22.867L41.9985 23.158H42.09L42.207 22.867V23.209H42.2985L42.3 22.759ZM42.666 16.0495C42.666 9.6985 37.491 4.525 31.125 4.525C28.8577 4.53069 26.6417 5.19967 24.75 6.4495C30.759 11.392 30.8505 20.7415 24.75 25.6585C26.6412 26.9094 28.8576 27.5785 31.125 27.583C37.491 27.592 42.666 22.4245 42.666 16.0495Z" fill="#333333"/>
</svg>
