<svg width="10" height="8" viewBox="0 0 10 8" fill="none" xmlns="http://www.w3.org/2000/svg">
<path d="M6.4 2L7 2.6L3.6 6L3 5.4L6.4 2ZM1 0H9C9.555 0 10 0.445 10 1V3C9.73478 3 9.48043 3.10536 9.29289 3.29289C9.10536 3.48043 9 3.73478 9 4C9 4.26522 9.10536 4.51957 9.29289 4.70711C9.48043 4.89464 9.73478 5 10 5V7C10 7.555 9.555 8 9 8H1C0.734783 8 0.48043 7.89464 0.292893 7.70711C0.105357 7.51957 0 7.26522 0 7V5C0.555 5 1 4.555 1 4C1 3.73478 0.894643 3.48043 0.707107 3.29289C0.51957 3.10536 0.265216 3 0 3V1C0 0.734783 0.105357 0.48043 0.292893 0.292893C0.48043 0.105357 0.734783 0 1 0ZM1 1V2.27C1.30384 2.4452 1.55618 2.69733 1.73163 3.00103C1.90708 3.30472 1.99945 3.64927 1.99945 4C1.99945 4.35073 1.90708 4.69528 1.73163 4.99897C1.55618 5.30267 1.30384 5.5548 1 5.73V7H9V5.73C8.69616 5.5548 8.44382 5.30267 8.26837 4.99897C8.09292 4.69528 8.00055 4.35073 8.00055 4C8.00055 3.64927 8.09292 3.30472 8.26837 3.00103C8.44382 2.69733 8.69616 2.4452 9 2.27V1H1ZM3.75 2C4.165 2 4.5 2.335 4.5 2.75C4.5 3.165 4.165 3.5 3.75 3.5C3.335 3.5 3 3.165 3 2.75C3 2.335 3.335 2 3.75 2ZM6.25 4.5C6.665 4.5 7 4.835 7 5.25C7 5.665 6.665 6 6.25 6C5.835 6 5.5 5.665 5.5 5.25C5.5 4.835 5.835 4.5 6.25 4.5Z" fill="#828282"/>
</svg>
