<svg width="10" height="10" viewBox="0 0 10 10" fill="none" xmlns="http://www.w3.org/2000/svg">
<path d="M9.83803 2.84196C9.7316 1.96465 9.29732 0.44196 7.59803 0.0796522C7.36843 0.0290369 7.13488 0.00212013 6.90053 -0.000732422H6.84589C6.13179 0.00266372 5.44543 0.297472 4.92518 0.824267L4.9266 0.822729C4.40461 0.295657 3.71644 0.00138336 3.00089 -0.000732422H2.95553C2.70553 0.00272911 2.4641 0.0319599 2.23053 0.0842675L2.25517 0.0796522C0.271603 0.499267 0.0330314 2.61157 0.0151743 2.85196V2.86004C-0.0869686 4.01273 0.184103 6.93619 4.8266 9.18196L4.92875 9.23042L5.02803 9.18196C9.92232 6.81503 9.94696 3.73003 9.83803 2.84196ZM4.72839 1.35388L4.92482 1.55965L5.12125 1.35388C5.3432 1.10023 5.60988 0.89676 5.9057 0.755371C6.20151 0.613983 6.52053 0.53751 6.8441 0.530421H6.88875C7.10239 0.534266 7.31528 0.558853 7.52482 0.603883L7.50232 0.599652C8.90018 0.896575 9.26018 2.17427 9.3516 2.90965C9.42604 3.66463 9.28156 4.4259 8.93803 5.08888L8.94696 5.07003C8.2866 6.45734 6.93339 7.6608 4.92482 8.65042C0.66446 6.55426 0.408746 3.94273 0.498389 2.9108V2.90004C0.515889 2.69927 0.71196 0.945421 2.34553 0.597729C2.54559 0.555145 2.74878 0.531848 2.95267 0.528113H3.00303C3.32696 0.535026 3.64636 0.611487 3.9425 0.753018C4.23864 0.894549 4.50558 1.0983 4.72767 1.35234L4.72875 1.3535L4.72839 1.35388Z" fill="#828282"/>
</svg>
